<svg xmlns="http://www.w3.org/2000/svg" viewBox="0 0 752.65 1353.65"><defs><style>.cls-1{fill:#1f4663;}</style></defs><g id="Layer_1" data-name="Layer 1"><path class="cls-1" d="M782.26,778.55c-53.67-20.62-122.35,6.64-172.38,29.72A949.62,949.62,0,0,0,427.75,918.71c-39.7-68-45.93-150.2-31.5-227.43,39.61-212,222.57-389.82,436.92-505.16L683.66,263.24C585.51,341.54,504.86,435,444.89,535.85c-56.8,95.48-92.76,201.56-82.06,304.95a314.59,314.59,0,0,0,30.82,105.48q-33.36,28.29-63.57,59.08c-149.45,152.39-247.39,343.52-249.56,534.4l28.58-7C99.4,1322.24,205,1110.87,396.47,960.84c1.16-.9,2.34-1.78,3.5-2.68,33.64,60.06,90.38,108.37,174.4,102.76,102.91-6.86,174.88-94.3,217.09-166.22C813.69,856.82,837.79,799.88,782.26,778.55Zm6,78c7.3,46-36.95,94.61-77.69,123.85-36.39,26.12-81.59,43.7-128.09,41.47-56.94-2.73-102.61-34-132.8-71.23-5-6.14-9.49-12.5-13.8-19a941.24,941.24,0,0,1,90.42-56.2c46.61-25.4,98.3-52.1,152.4-61C723.34,807.16,781.23,812.21,788.27,856.53Z" transform="translate(-80.52 -186.12)"/></g></svg>